<svg viewBox="0 0 512 512" xmlns="http://www.w3.org/2000/svg" xmlns:xlink="http://www.w3.org/1999/xlink"><filter id="a" color-interpolation-filters="sRGB" height="1.270006" width="1.137335" x="-.068668" y="-.135003"><feGaussianBlur stdDeviation="7.4903573"/></filter><path d="m129.27833 186.09969c-3.73326.0291-7.00998 2.38667-8.25 5.89649-.40539 1.14115-.52344 2.29721-.52344 3.49414v117.65234c.13805 4.90237 3.97251 8.7242 8.83008 8.73633 10.18227.0135 31.15039-.0352 31.15039-.0352l-.0371-9.10547h-30.58398c-.16231-.97807-.12095-116.11857.0371-116.64648.9369-.13077 247.47735-.0838 248.01953.043.1491.88803.10647 116.04009-.0566 116.64648h-206.18559v9.10547s.80356.00017 1.17188.0137h205.90039c3.6926-.0367 6.96437-2.35276 8.22265-5.83398.40535-1.1089.52149-2.25284.52149-3.42188v-117.87306c-.0776-3.89399-2.72761-7.31447-6.47656-8.34961l-.006-.008c-.99276-.26558-1.98405-.31445-3.00977-.31445zm114.81445 34.54492c-.0771.14803-.13359.25623-.16406.35743-8.35598 22.40698-16.70351 44.82314-25.05664 67.22656-.0367.0367-.0371.1053-.0371.14844v.0723c0 .0291.0365.0426.043.0762h11.4707l.0215.004c.0884-.2556.19048-.47502.26758-.71289 1.77607-5.04583 3.55307-10.0827 5.33398-15.13281.29627-.8117.59165-1.62831.85938-2.44336.10597-.34022.27796-.5177.63671-.47461.11622.0135.25107 0 .36914 0h25.07227c2.26638 6.27915 4.5175 12.51175 6.75977 18.74609h11.73632c-8.46655-22.68449-16.89802-45.27829-25.3125-67.86719zm-44.11523.22852c-.65406 0-1.06645.18963-1.49805.69726-8.73907 10.34921-17.49877 20.70003-26.25781 31.03711-.11621.13238-.26713.25169-.51953.48438v-25.7461c0-2.13091.0367-4.26842 0-6.40039h-10.99024v67.50782c.87248.15315 10.41731.12147 11.00586-.0371v-.85938l-.0293-.004v-23.54688c0-.53108.14825-.90351.58203-1.24023 1.81865-1.43813 3.61358-2.91863 5.4082-4.38672.17903-.13293.35289-.25112.57617-.41406.1936.25021.35554.4547.50586.67968 3.05062 4.40114 6.1038 8.79762 9.15235 13.19141 3.74082 5.4128 7.48751 10.8019 11.2207 16.18945.20734.31271.39773.54883.85742.54883 3.93066-.0135 7.8574-.0137 11.7832-.0137.12997 0 .26366-.043.47071-.0899-8.6927-12.65989-17.34978-25.23043-26.03321-37.8789 1.74697-2.02796 3.43691-3.9804 5.125-5.98047 1.69254-1.95819 3.37861-3.92271 5.06836-5.89453 1.68724-1.96683 3.36302-3.93743 5.05469-5.90625 1.68818-1.97339 3.37985-3.94233 5.04883-5.91016 1.68062-1.95298 3.34749-3.90681 5.12891-6.01367h-.99024c-3.55719 0-7.11222.0213-10.66992-.0137zm89.06055.0703c-.18335.84408-.13818 67.03287.0371 67.58789h39.53515v-9.40429h-19.07031c-1.60328 0-3.22019.0135-4.81641 0-1.57331-.0135-3.13966.0592-4.77148-.0352v-52.92578l-.01-.01c0-1.74817.066-3.48134-.0488-5.21289zm47.09375.0215v67.54882h10.94922c.0364-.11351.0645-.17538.0645-.25195v-66.90234h-.006c0-.10488-.00071-.19196-.0371-.30078 0-.0291-.0371-.0359-.0371-.0566 0-.0135-.043-.0371-.043-.0371zm-86.16016 9.45507c.11621.17741.20868.2855.24023.40235 1.83592 6.85507 4.34411 13.50602 6.62305 20.23047.94667 2.79793 1.92878 5.57774 2.89258 8.37695.0733.25049.14539.5008.23437.81055h-19.69335c.0879-.29175.16284-.54205.24804-.79297 2.31139-6.69299 4.65596-13.35552 6.90821-20.06641.90373-2.69713 1.58412-5.47991 2.35351-8.23047.065-.20843.10572-.41671.19336-.73047z" style="clip-rule:evenodd;opacity:.548038;fill:#367bf0;fill-rule:evenodd;stroke:#000;stroke-width:.713394;filter:url(#a)"/><g fill="#2777ff"><path clip-rule="evenodd" d="m129.27833 184.09969c-3.73326.0291-7.00998 2.38667-8.25 5.89649-.40539 1.14115-.52344 2.29721-.52344 3.49414v117.65234c.13805 4.90237 3.97251 8.7242 8.83008 8.73633 10.18227.0135 31.15039-.0352 31.15039-.0352l-.0371-9.10547h-30.58398c-.16231-.97807-.12095-116.11857.0371-116.64648.9369-.13077 247.47735-.0838 248.01953.043.1491.88803.10647 116.04009-.0566 116.64648h-206.18559v9.10547s.80356.00017 1.17188.0137h205.90039c3.6926-.0367 6.96437-2.35276 8.22265-5.83398.40535-1.1089.52149-2.25284.52149-3.42188v-117.87306c-.0776-3.89399-2.72761-7.31447-6.47656-8.34961l-.006-.008c-.99276-.26558-1.98405-.31445-3.00977-.31445zm114.81445 34.54492c-.0771.14803-.13359.25623-.16406.35743-8.35598 22.40698-16.70351 44.82314-25.05664 67.22656-.0367.0367-.0371.1053-.0371.14844v.0723c0 .0291.0365.0426.043.0762h11.4707l.0215.004c.0884-.2556.19048-.47502.26758-.71289 1.77607-5.04583 3.55307-10.0827 5.33398-15.13281.29627-.8117.59165-1.62831.85938-2.44336.10597-.34022.27796-.5177.63671-.47461.11622.0135.25107 0 .36914 0h25.07227c2.26638 6.27915 4.5175 12.51175 6.75977 18.74609h11.73632c-8.46655-22.68449-16.89802-45.27829-25.3125-67.86719zm-44.11523.22852c-.65406 0-1.06645.18963-1.49805.69726-8.73907 10.34921-17.49877 20.70003-26.25781 31.03711-.11621.13238-.26713.25169-.51953.48438v-25.7461c0-2.13091.0367-4.26842 0-6.40039h-10.99024v67.50782c.87248.15315 10.41731.12147 11.00586-.0371v-.85938l-.0293-.004v-23.54688c0-.53108.14825-.90351.58203-1.24023 1.81865-1.43813 3.61358-2.91863 5.4082-4.38672.17903-.13293.35289-.25112.57617-.41406.1936.25021.35554.4547.50586.67968 3.05062 4.40114 6.1038 8.79762 9.15235 13.19141 3.74082 5.4128 7.48751 10.8019 11.2207 16.18945.20734.31271.39773.54883.85742.54883 3.93066-.0135 7.8574-.0137 11.7832-.0137.12997 0 .26366-.043.47071-.0899-8.6927-12.65989-17.34978-25.23043-26.03321-37.8789 1.74697-2.02796 3.43691-3.9804 5.125-5.98047 1.69254-1.95819 3.37861-3.92271 5.06836-5.89453 1.68724-1.96683 3.36302-3.93743 5.05469-5.90625 1.68818-1.97339 3.37985-3.94233 5.04883-5.91016 1.68062-1.95298 3.34749-3.90681 5.12891-6.01367h-.99024c-3.55719 0-7.11222.0213-10.66992-.0137zm89.06055.0703c-.18335.84408-.13818 67.03287.0371 67.58789h39.53515v-9.40429h-19.07031c-1.60328 0-3.22019.0135-4.81641 0-1.57331-.0135-3.13966.0592-4.77148-.0352v-52.92578l-.01-.01c0-1.74817.066-3.48134-.0488-5.21289zm47.09375.0215v67.54882h10.94922c.0364-.11351.0645-.17538.0645-.25195v-66.90234h-.006c0-.10488-.00071-.19196-.0371-.30078 0-.0291-.0371-.0359-.0371-.0566 0-.0135-.043-.0371-.043-.0371zm-86.16016 9.45507c.11621.17741.20868.2855.24023.40235 1.83592 6.85507 4.34411 13.50602 6.62305 20.23047.94667 2.79793 1.92878 5.57774 2.89258 8.37695.0733.25049.14539.5008.23437.81055h-19.69335c.0879-.29175.16284-.54205.24804-.79297 2.31139-6.69299 4.65596-13.35552 6.90821-20.06641.90373-2.69713 1.58412-5.47991 2.35351-8.23047.065-.20843.10572-.41671.19336-.73047z" fill-rule="evenodd" stroke-width=".713394"/><path d="m-123.07898-93.267808s-122.68926 3.371494-324.19607 87.895118c-205.35396 86.136338-316.51779 191.28084-316.51779 191.28084s298.78185-205.787136 653.80062-249.320875zm472.80447 148.612616 15.75331-2.527436s-101.19181-101.630102-280.070606-138.929808c101.452016 30.515283 191.454496 75.131207 264.311816 141.450049zm30.25284 43.337001c2.03898-4.454863 11.56834 12.452971 18.24094 19.304611.3925 1.45665.89794 2.32051-2.63314 1.9341-.43461-1.49447-.97893-1.88853-.97893-1.88853s-8.82959-4.18721-11.72537-7.47474c-2.8978-3.28714-3.93448-9.41681-2.90429-11.875361zm262.7245 504.404731s-1.56923-223.1484-354.11892-241.42293c-44.68341-2.31532-100.8901-2.04248-157.28257 3.12539-278.3662 29.93752-319.15221-294.246893-110.677344-330.445772 86.362964-15.380178 194.716814 21.783491 300.777864 59.529062.81129 12.65432 2.38923 23.81865 11.65551 33.39997 9.26331 9.57823 42.16496 17.88107 52.88834 22.75995 10.72273 4.88104 45.26381 22.53138 67.68328 46.64471 3.56793-8.50924 37.51901-35.45888 37.51901-35.45888s-8.64675 1.00474-29.51351-4.63026c-20.86929-5.63462-46.93802-26.17513-47.628-27.43876-.68901-1.26635-1.26023-3.30228 3.36203-4.68852 3.2934-3.3485-5.73051-12.38126-9.647-15.62115-3.91419-3.24248-31.6728-41.672298-32.32519-42.562444-.65347-.889329-.9319-1.811785-2.73226-2.783236-5.43585-1.199624-28.21622 5.12772-28.21622 5.12772s-37.28406-14.145372-53.12159-50.722885c.8017 6.592549-4.8083 14.401401 2.73252 29.010354-19.3204-6.109848-36.54246-18.011936-52.25046-49.9533445-5.71736 19.5472635 2.90313 30.8215535 2.90313 30.8215535s-44.90471-8.104773-55.70546-47.79582c-5.97689 18.8369389 2.7323 29.0079951 2.7323 29.0079951s-74.83387-30.4989991-193.4047435-19.8750801c-80.0348155.195648-109.7022065-137.836503-104.5643065-162.025663 0 0-120.1326-49.53871-347.93913-54.96645-227.80674-5.43011-410.44883 34.60898-410.44883 34.60898s397.22288-56.73449 729.07831 42.57283c15.44509 47.58053 55.760231 125.451692 77.032306 162.70373-47.099696 39.578655-100.826906 77.684441-98.731636 194.68929 2.09794 116.99981 111.598455 209.77329 235.748689 201.25936 118.195511-4.81293 199.536451-11.57694 302.834071 30.20742 98.90575 43.12564 190.90688 194.25683 211.95363 335.98716-1.71618-106.46842-62.78818-330.01793-254.37285-381.59427 262.95504 20.90411 303.77503 210.53483 303.77503 210.53483zm-773.50916-713.13557-12.13636-29.14728s-156.1574-12.80764-361.27864 21.32157c-205.1213 34.129164-406.81018 126.0549861-406.81018 126.0549861s416.50743-147.5309761 780.21751-118.2297761" stroke-width="12.0163"/></g></svg>